<svg width="25" height="24" viewBox="0 0 25 24" fill="none" xmlns="http://www.w3.org/2000/svg">
<path d="M10.0951 19.3711L10.6796 20.6856C10.8533 21.0768 11.1368 21.4093 11.4958 21.6426C11.8547 21.8759 12.2737 22.0001 12.7018 22C13.1299 22.0001 13.5488 21.8759 13.9078 21.6426C14.2667 21.4093 14.5503 21.0768 14.724 20.6856L15.3084 19.3711C15.5165 18.9047 15.8665 18.5159 16.3084 18.26C16.7532 18.0034 17.2678 17.8941 17.7784 17.9478L19.2084 18.1C19.6341 18.145 20.0637 18.0656 20.4451 17.8713C20.8266 17.6771 21.1434 17.3763 21.3573 17.0056C21.5715 16.635 21.6736 16.2103 21.6511 15.7829C21.6286 15.3555 21.4825 14.9438 21.2307 14.5978L20.384 13.4344C20.0825 13.0171 19.9214 12.5148 19.924 12C19.9239 11.4866 20.0865 10.9864 20.3884 10.5711L21.2351 9.40778C21.487 9.06175 21.633 8.65007 21.6555 8.22267C21.678 7.79528 21.576 7.37054 21.3618 7C21.1479 6.62923 20.831 6.32849 20.4496 6.13423C20.0682 5.93997 19.6386 5.86053 19.2129 5.90556L17.7829 6.05778C17.2722 6.11141 16.7577 6.00212 16.3129 5.74556C15.87 5.48825 15.52 5.09736 15.3129 4.62889L14.724 3.31444C14.5503 2.92317 14.2667 2.59072 13.9078 2.3574C13.5488 2.12408 13.1299 1.99993 12.7018 2C12.2737 1.99993 11.8547 2.12408 11.4958 2.3574C11.1368 2.59072 10.8533 2.92317 10.6796 3.31444L10.0951 4.62889C9.88804 5.09736 9.53799 5.48825 9.09512 5.74556C8.65033 6.00212 8.13578 6.11141 7.62512 6.05778L6.19067 5.90556C5.765 5.86053 5.33541 5.93997 4.95399 6.13423C4.57256 6.32849 4.25569 6.62923 4.04178 7C3.8276 7.37054 3.72557 7.79528 3.74805 8.22267C3.77053 8.65007 3.91657 9.06175 4.16845 9.40778L5.01511 10.5711C5.31706 10.9864 5.47965 11.4866 5.47956 12C5.47965 12.5134 5.31706 13.0137 5.01511 13.4289L4.16845 14.5922C3.91657 14.9382 3.77053 15.3499 3.74805 15.7773C3.72557 16.2047 3.8276 16.6295 4.04178 17C4.2559 17.3706 4.57281 17.6712 4.95418 17.8654C5.33555 18.0596 5.76503 18.1392 6.19067 18.0944L7.62067 17.9422C8.13134 17.8886 8.64589 17.9979 9.09067 18.2544C9.5352 18.511 9.88688 18.902 10.0951 19.3711Z" stroke="#4B5768" stroke-width="2" stroke-linecap="round" stroke-linejoin="round"/>
<path d="M12.7 15C14.3568 15 15.7 13.6569 15.7 12C15.7 10.3431 14.3568 9 12.7 9C11.0431 9 9.7 10.3431 9.7 12C9.7 13.6569 11.0431 15 12.7 15Z" stroke="#4B5768" stroke-width="2" stroke-linecap="round" stroke-linejoin="round"/>
</svg>
