<svg width="19" height="19" viewBox="0 0 19 19" fill="none" xmlns="http://www.w3.org/2000/svg">
<path d="M9.41667 2.49984H5.5C4.09987 2.49984 3.3998 2.49984 2.86502 2.77232C2.39462 3.012 2.01217 3.39446 1.77248 3.86486C1.5 4.39964 1.5 5.09971 1.5 6.49984V13.4998C1.5 14.9 1.5 15.6 1.77248 16.1348C2.01217 16.6052 2.39462 16.9877 2.86502 17.2274C3.3998 17.4998 4.09987 17.4998 5.5 17.4998H13.1667C13.9416 17.4998 14.3291 17.4998 14.647 17.4147C15.5098 17.1835 16.1836 16.5096 16.4148 15.6469C16.5 15.329 16.5 14.9415 16.5 14.1665M14.8333 6.6665V1.6665M12.3333 4.1665H17.3333M7.75 7.08317C7.75 8.00365 7.00381 8.74984 6.08333 8.74984C5.16286 8.74984 4.41667 8.00365 4.41667 7.08317C4.41667 6.1627 5.16286 5.4165 6.08333 5.4165C7.00381 5.4165 7.75 6.1627 7.75 7.08317ZM11.4917 9.93163L4.44262 16.3399C4.04614 16.7003 3.84789 16.8805 3.83036 17.0367C3.81516 17.172 3.86704 17.3062 3.96932 17.3961C4.08732 17.4998 4.35523 17.4998 4.89107 17.4998H12.7133C13.9126 17.4998 14.5123 17.4998 14.9833 17.2984C15.5745 17.0454 16.0456 16.5744 16.2985 15.9831C16.5 15.5121 16.5 14.9125 16.5 13.7132C16.5 13.3096 16.5 13.1079 16.4559 12.92C16.4005 12.6838 16.2941 12.4626 16.1444 12.2718C16.0252 12.12 15.8677 11.994 15.5526 11.7419L13.2215 9.87705C12.9062 9.62476 12.7485 9.49861 12.5748 9.4541C12.4218 9.41486 12.2607 9.41994 12.1104 9.46875C11.94 9.52412 11.7905 9.65996 11.4917 9.93163Z" stroke="#B2B7C2" stroke-width="1.66667" stroke-linecap="round" stroke-linejoin="round"/>
</svg>
