<svg width="12" height="12" viewBox="0 0 12 12" fill="none" xmlns="http://www.w3.org/2000/svg">
<path d="M6 1L7.00598 3.61554C7.14698 3.98216 7.21749 4.16547 7.32712 4.31965C7.42429 4.45631 7.54369 4.57571 7.68035 4.67288C7.83454 4.78251 8.01784 4.85302 8.38446 4.99402L11 6L8.38446 7.00598C8.01784 7.14698 7.83454 7.21749 7.68035 7.32712C7.54369 7.42429 7.42429 7.54369 7.32712 7.68035C7.21749 7.83454 7.14698 8.01784 7.00598 8.38446L6 11L4.99402 8.38446C4.85302 8.01784 4.78251 7.83454 4.67288 7.68035C4.57571 7.54369 4.45631 7.42429 4.31965 7.32712C4.16547 7.21749 3.98216 7.14698 3.61554 7.00598L1 6L3.61554 4.99402C3.98216 4.85302 4.16546 4.78251 4.31965 4.67288C4.45631 4.57571 4.57571 4.45631 4.67288 4.31965C4.78251 4.16546 4.85302 3.98216 4.99402 3.61554L6 1Z" stroke="white" stroke-linecap="round" stroke-linejoin="round"/>
</svg>
