<svg width="14" height="14" viewBox="0 0 14 14" fill="none" xmlns="http://www.w3.org/2000/svg">
<path d="M12.25 5.83268H1.75M9.33333 1.16602V3.49935M4.66667 1.16602V3.49935M5.25 9.33268L6.41667 10.4993L9.04167 7.87435M4.55 12.8327H9.45C10.4301 12.8327 10.9201 12.8327 11.2945 12.6419C11.6238 12.4742 11.8915 12.2064 12.0593 11.8772C12.25 11.5028 12.25 11.0128 12.25 10.0327V5.13268C12.25 4.15259 12.25 3.66254 12.0593 3.2882C11.8915 2.95892 11.6238 2.6912 11.2945 2.52342C10.9201 2.33268 10.4301 2.33268 9.45 2.33268H4.55C3.56991 2.33268 3.07986 2.33268 2.70552 2.52342C2.37623 2.6912 2.10852 2.95892 1.94074 3.2882C1.75 3.66254 1.75 4.15259 1.75 5.13268V10.0327C1.75 11.0128 1.75 11.5028 1.94074 11.8772C2.10852 12.2064 2.37623 12.4742 2.70552 12.6419C3.07986 12.8327 3.56991 12.8327 4.55 12.8327Z" stroke="#808080" stroke-width="1.16667" stroke-linecap="round" stroke-linejoin="round"/>
</svg>
