<svg width="25" height="24" viewBox="0 0 25 24" fill="none" xmlns="http://www.w3.org/2000/svg">
<path d="M14.9 11H8.89999M10.9 15H8.89999M16.9 7H8.89999M20.9 6.8V17.2C20.9 18.8802 20.9 19.7202 20.573 20.362C20.2854 20.9265 19.8265 21.3854 19.262 21.673C18.6202 22 17.7802 22 16.1 22H9.69999C8.01984 22 7.17976 22 6.53802 21.673C5.97354 21.3854 5.51459 20.9265 5.22697 20.362C4.89999 19.7202 4.89999 18.8802 4.89999 17.2V6.8C4.89999 5.11984 4.89999 4.27976 5.22697 3.63803C5.51459 3.07354 5.97354 2.6146 6.53802 2.32698C7.17976 2 8.01984 2 9.69999 2H16.1C17.7802 2 18.6202 2 19.262 2.32698C19.8265 2.6146 20.2854 3.07354 20.573 3.63803C20.9 4.27976 20.9 5.11984 20.9 6.8Z" stroke="#4B5768" stroke-width="2" stroke-linecap="round" stroke-linejoin="round"/>
</svg>
