<svg width="24" height="25" viewBox="0 0 24 25" fill="none" xmlns="http://www.w3.org/2000/svg">
<path d="M2.42012 13.0813C2.28394 12.8657 2.21584 12.7579 2.17772 12.5916C2.14909 12.4667 2.14909 12.2697 2.17772 12.1447C2.21584 11.9784 2.28394 11.8706 2.42012 11.655C3.54553 9.873 6.8954 5.36816 12.0004 5.36816C17.1054 5.36816 20.4553 9.873 21.5807 11.655C21.7169 11.8706 21.785 11.9784 21.8231 12.1447C21.8517 12.2697 21.8517 12.4667 21.8231 12.5916C21.785 12.7579 21.7169 12.8657 21.5807 13.0813C20.4553 14.8633 17.1054 19.3682 12.0004 19.3682C6.8954 19.3682 3.54553 14.8633 2.42012 13.0813Z" stroke="#4B5768" stroke-width="2" stroke-linecap="round" stroke-linejoin="round"/>
<path d="M12.0004 15.3682C13.6573 15.3682 15.0004 14.025 15.0004 12.3682C15.0004 10.7113 13.6573 9.36816 12.0004 9.36816C10.3435 9.36816 9.0004 10.7113 9.0004 12.3682C9.0004 14.025 10.3435 15.3682 12.0004 15.3682Z" stroke="#4B5768" stroke-width="2" stroke-linecap="round" stroke-linejoin="round"/>
</svg>
