<svg width="25" height="24" viewBox="0 0 25 24" fill="none" xmlns="http://www.w3.org/2000/svg">
<path d="M20.7 12.5V6.8C20.7 5.11984 20.7 4.27976 20.373 3.63803C20.0854 3.07354 19.6265 2.6146 19.062 2.32698C18.4202 2 17.5802 2 15.9 2H9.5C7.81984 2 6.97976 2 6.33803 2.32698C5.77354 2.6146 5.3146 3.07354 5.02698 3.63803C4.7 4.27976 4.7 5.11984 4.7 6.8V17.2C4.7 18.8802 4.7 19.7202 5.02698 20.362C5.3146 20.9265 5.77354 21.3854 6.33803 21.673C6.97976 22 7.81979 22 9.49986 22H13.2M14.7 11H8.7M10.7 15H8.7M16.7 7H8.7M15.7 19L18.7 22M18.7 22L21.7 19M18.7 22V16" stroke="#4B5768" stroke-width="2" stroke-linecap="round" stroke-linejoin="round"/>
</svg>
