<svg xmlns="http://www.w3.org/2000/svg" viewBox="0 0 40 48" width="100%" style="max-width: 100%;"><defs><clipPath id="pageRadius1"><rect x="0" y="0" rx="4" ry="4" width="40" height="48"></rect></clipPath><clipPath id="foldCrop"><rect width="40" height="12" transform="rotate(-45 0 12)"></rect></clipPath><linearGradient x1="100%" y1="0%" y2="100%" id="pageGradient1"><stop stop-color="white" stop-opacity="0.25" offset="0%"></stop><stop stop-color="white" stop-opacity="0" offset="66.67%"></stop></linearGradient></defs><g id="file" clip-path="url(#pageRadius1)"><path d="M0 0 h 28 L 40 12 v 36 H 0 Z" fill="whitesmoke"></path><path d="M0 0 h 28 L 40 12 v 36 H 0 Z" fill="url(#pageGradient1)"></path></g><g transform="translate(28 12) rotate(-90)"><rect width="40" height="48" fill="#dcdcdc" rx="4" ry="4" clip-path="url(#foldCrop)"></rect></g><g id="label"><rect fill="#a9a9a9" x="0" y="34" width="40" height="14" clip-path="url(#pageRadius1)"></rect></g><g id="labelText" transform="translate(0 34)"><text x="20" y="10" font-family="-apple-system, BlinkMacSystemFont, 'Segoe UI', Roboto, Helvetica, Arial, sans-serif" font-size="9" fill="white" text-anchor="middle" style="font-weight: bold; text-align: center; pointer-events: none; text-transform: none; user-select: none;">mp4</text></g><g transform="translate(-4 0)" fill="#cfcfcf"><path d="M10.75 3.875V1.25A.752.752 0 0 0 10 .5H1a.752.752 0 0 0-.75.75v7.5c0 .412.338.75.75.75h9c.412 0 .75-.338.75-.75V6.125l3 3V.875l-3 3z" transform="translate(17 14)"></path></g></svg>