<svg width="16" height="16" viewBox="0 0 16 16" fill="none" xmlns="http://www.w3.org/2000/svg">
<g clip-path="url(#clip0_941_6051)">
<path d="M8.00016 14.6668V1.3335M4.66683 14.6668V11.3335M4.66683 4.66683V1.3335M11.3335 14.6668V11.3335M11.3335 4.66683V1.3335M1.3335 4.66683H14.6668M1.3335 11.3335H14.6668M14.6668 11.4668V4.5335C14.6668 3.41339 14.6668 2.85334 14.4488 2.42551C14.2571 2.04919 13.9511 1.74323 13.5748 1.55148C13.147 1.3335 12.5869 1.3335 11.4668 1.3335L4.5335 1.3335C3.41339 1.3335 2.85334 1.3335 2.42551 1.55148C2.04919 1.74323 1.74323 2.04919 1.55148 2.42552C1.3335 2.85334 1.3335 3.41339 1.3335 4.5335L1.3335 11.4668C1.3335 12.5869 1.3335 13.147 1.55148 13.5748C1.74323 13.9511 2.04919 14.2571 2.42552 14.4488C2.85334 14.6668 3.41339 14.6668 4.5335 14.6668H11.4668C12.5869 14.6668 13.147 14.6668 13.5748 14.4488C13.9511 14.2571 14.2571 13.9511 14.4488 13.5748C14.6668 13.147 14.6668 12.5869 14.6668 11.4668Z" stroke="#0052CC" stroke-width="1.33333" stroke-linecap="round" stroke-linejoin="round"/>
</g>
<defs>
<clipPath id="clip0_941_6051">
<rect width="16" height="16" fill="white"/>
</clipPath>
</defs>
</svg>
