<svg width="233" height="51" viewBox="0 0 233 51" fill="none" xmlns="http://www.w3.org/2000/svg">
<path fill-rule="evenodd" clip-rule="evenodd" d="M87.2467 22.1285C87.2467 18.3319 85.5276 15.8856 82.7995 15.8856C80.1272 15.8856 78.3707 18.3711 78.3707 22.1285C78.3707 25.9251 80.1272 28.3517 82.7995 28.3517C85.5276 28.3517 87.2467 25.9447 87.2467 22.1285ZM92.8341 22.1285C92.8341 28.8803 89.732 32.9508 84.7243 32.9508C81.8092 32.9508 79.5667 31.4639 78.5015 29.0953H78.3898V39.4679H72.9332V11.6389H78.3149V15.2982H78.4269C79.5105 12.8323 81.7343 11.3062 84.6306 11.3062C89.7136 11.3062 92.8341 15.357 92.8341 22.1285Z" fill="white"/>
<path fill-rule="evenodd" clip-rule="evenodd" d="M95.4434 11.6388H100.713V15.4157H100.825C101.535 12.7548 103.235 11.3064 105.59 11.3064C106.225 11.3064 106.767 11.4041 107.141 11.5218V16.5506C106.693 16.3552 105.945 16.2182 105.16 16.2182C102.47 16.2182 100.9 17.9405 100.9 20.8958V32.6183H95.4434V11.6388Z" fill="white"/>
<path fill-rule="evenodd" clip-rule="evenodd" d="M122.085 22.1285C122.085 17.9603 120.365 15.5532 117.712 15.5532C115.059 15.5532 113.321 17.9603 113.321 22.1285C113.321 26.3363 115.021 28.7041 117.712 28.7041C120.384 28.7041 122.085 26.3363 122.085 22.1285ZM107.789 22.1089C107.789 15.3178 111.714 11.1885 117.712 11.1885C123.71 11.1885 127.634 15.2982 127.634 22.1089C127.634 29.0177 123.767 33.0685 117.712 33.0685C111.658 33.0685 107.789 28.998 107.789 22.1089Z" fill="white"/>
<path fill-rule="evenodd" clip-rule="evenodd" d="M143.96 22.0892C143.96 18.3123 142.222 15.8856 139.494 15.8856C136.803 15.8856 135.102 18.273 135.102 22.0892C135.102 25.9251 136.784 28.1567 139.494 28.1567C142.222 28.1567 143.96 25.8858 143.96 22.0892ZM130.132 34.1053H135.476C135.906 35.5537 137.475 36.5519 139.55 36.5519C142.372 36.5519 143.941 34.9085 143.941 32.4811V28.8018H143.829C142.895 31.0334 140.54 32.5592 137.644 32.5592C132.748 32.5592 129.515 28.6064 129.515 22.05C129.515 15.3963 132.655 11.3062 137.737 11.3062C140.615 11.3062 142.876 12.8915 143.922 15.2982H144.016V11.6389H149.398V32.3249C149.398 37.3348 145.399 40.5247 139.401 40.5247C134.131 40.5247 130.562 37.843 130.132 34.1053Z" fill="white"/>
<path fill-rule="evenodd" clip-rule="evenodd" d="M152.755 11.6388H158.024V15.4157H158.136C158.846 12.7548 160.547 11.3064 162.902 11.3064C163.537 11.3064 164.079 11.4041 164.452 11.5218V16.5506C164.004 16.3552 163.256 16.2182 162.472 16.2182C159.781 16.2182 158.211 17.9405 158.211 20.8958V32.6183H152.755V11.6388Z" fill="white"/>
<path fill-rule="evenodd" clip-rule="evenodd" d="M170.519 19.9365H179.021C178.909 17.2559 177.246 15.4159 174.817 15.4159C172.425 15.4159 170.706 17.3148 170.519 19.9365ZM184.104 26.199C183.506 30.3095 179.918 33.0685 174.967 33.0685C168.8 33.0685 165.1 28.9392 165.1 22.2266C165.1 15.5336 168.837 11.1885 174.76 11.1885C180.591 11.1885 184.272 15.3178 184.272 21.698V23.4399H170.463V23.7919C170.463 26.7864 172.275 28.8411 175.059 28.8411C177.059 28.8411 178.592 27.8043 179.096 26.199H184.104Z" fill="white"/>
<path fill-rule="evenodd" clip-rule="evenodd" d="M194.992 11.1885C200.019 11.1885 203.288 13.8502 203.363 17.9207H198.337C198.225 16.2376 196.936 15.2009 194.917 15.2009C193.03 15.2009 191.797 16.1011 191.797 17.451C191.797 18.4885 192.657 19.1929 194.413 19.6234L198.244 20.4847C202.261 21.4241 203.887 23.0876 203.887 26.2182C203.887 30.3476 200.262 33.0682 194.973 33.0682C189.629 33.0682 186.34 30.3672 186.041 26.2771H191.367C191.629 28.0386 192.955 29.0565 195.123 29.0565C197.197 29.0565 198.45 28.1956 198.45 26.8253C198.45 25.7685 197.776 25.1815 195.983 24.7314L192.283 23.8704C188.49 22.9698 186.546 20.8955 186.546 17.803C186.546 13.811 189.853 11.1885 194.992 11.1885Z" fill="white"/>
<path fill-rule="evenodd" clip-rule="evenodd" d="M214.513 11.1885C219.54 11.1885 222.81 13.8502 222.885 17.9207H217.858C217.746 16.2376 216.457 15.2009 214.438 15.2009C212.551 15.2009 211.318 16.1011 211.318 17.451C211.318 18.4885 212.178 19.1929 213.934 19.6234L217.765 20.4847C221.782 21.4241 223.408 23.0876 223.408 26.2182C223.408 30.3476 219.783 33.0682 214.494 33.0682C209.15 33.0682 205.861 30.3672 205.563 26.2771H210.888C211.15 28.0386 212.477 29.0565 214.644 29.0565C216.718 29.0565 217.971 28.1956 217.971 26.8253C217.971 25.7685 217.298 25.1815 215.504 24.7314L211.804 23.8704C208.011 22.9698 206.067 20.8955 206.067 17.803C206.067 13.811 209.375 11.1885 214.513 11.1885Z" fill="white"/>
<path fill-rule="evenodd" clip-rule="evenodd" d="M173.807 42.5029C173.494 41.0089 172.324 39.8299 170.496 39.8299C168.234 39.8299 166.751 41.7325 166.751 44.7326C166.751 47.7788 168.245 49.6347 170.508 49.6347C172.257 49.6347 173.472 48.619 173.807 47.0439H175.267C174.943 49.366 173.06 51 170.496 51C167.331 51 165.247 48.619 165.247 44.7326C165.247 40.9036 167.331 38.4645 170.485 38.4645C173.216 38.4645 174.966 40.332 175.255 42.5029H173.807Z" fill="white"/>
<path fill-rule="evenodd" clip-rule="evenodd" d="M178.048 43.8806H185.202C185.169 41.4875 183.776 39.8184 181.681 39.8184C179.608 39.8184 178.17 41.4875 178.048 43.8806ZM186.574 47.3588C186.228 49.4598 184.344 50.9999 181.792 50.9999C178.538 50.9999 176.521 48.6189 176.521 44.7676C176.521 40.9974 178.561 38.4647 181.703 38.4647C184.78 38.4647 186.718 40.8337 186.718 44.4518V45.106H178.037V45.1996C178.037 47.942 179.519 49.6458 181.826 49.6458C183.576 49.6458 184.79 48.689 185.114 47.3588H186.574Z" fill="white"/>
<path fill-rule="evenodd" clip-rule="evenodd" d="M188.687 38.6628H190.08V40.9038H190.113C190.704 39.4336 192.063 38.4647 193.936 38.4647C196.477 38.4647 198.037 40.1806 198.037 42.9348V50.8022H196.566V43.18C196.566 41.0559 195.451 39.8418 193.513 39.8418C191.506 39.8418 190.158 41.3588 190.158 43.612V50.8022H188.687V38.6628Z" fill="white"/>
<path fill-rule="evenodd" clip-rule="evenodd" d="M202.624 35.6287V38.6628H204.909V39.947H202.624V47.7439C202.624 48.9931 203.093 49.53 204.162 49.53C204.319 49.53 204.875 49.5062 204.965 49.4832V50.8022C204.808 50.8373 204.185 50.8723 203.873 50.8723C201.934 50.8723 201.153 50.0084 201.153 47.8141V39.947H199.426V38.6628H201.153V35.6287H202.624Z" fill="white"/>
<path fill-rule="evenodd" clip-rule="evenodd" d="M207.548 43.8806H214.703C214.67 41.4875 213.276 39.8184 211.181 39.8184C209.109 39.8184 207.67 41.4875 207.548 43.8806ZM216.074 47.3588C215.728 49.4598 213.845 50.9999 211.292 50.9999C208.038 50.9999 206.021 48.6189 206.021 44.7676C206.021 40.9974 208.061 38.4647 211.203 38.4647C214.28 38.4647 216.218 40.8337 216.218 44.4518V45.106H207.537V45.1996C207.537 47.942 209.019 49.6458 211.326 49.6458C213.076 49.6458 214.291 48.689 214.614 47.3588H216.074Z" fill="white"/>
<path fill-rule="evenodd" clip-rule="evenodd" d="M218.187 38.6628H219.58V40.8227H219.614C220.037 39.3396 221.118 38.4647 222.545 38.4647C222.935 38.4647 223.281 38.5466 223.458 38.5926V40.1108C223.269 40.0169 222.857 39.935 222.355 39.935C220.705 39.935 219.658 41.2777 219.658 43.2388V50.8022H218.187V38.6628Z" fill="white"/>
<path fill-rule="evenodd" clip-rule="evenodd" d="M225.826 16.4248V12.4712H224.464V12.0996H227.583V12.4712H226.218V16.4248H225.826Z" fill="white"/>
<mask id="mask0_2_1305" style="mask-type:alpha" maskUnits="userSpaceOnUse" x="228" y="12" width="5" height="5">
<path d="M228.072 12.0996H232.05V16.4248H228.072V12.0996Z" fill="white"/>
</mask>
<g mask="url(#mask0_2_1305)">
<path fill-rule="evenodd" clip-rule="evenodd" d="M231.684 16.4248V12.8761H231.667L230.23 16.4036H229.89L228.456 12.8761H228.438V16.4248H228.072V12.0996H228.521L230.053 15.8849H230.07L231.598 12.0996H232.051V16.4248H231.684Z" fill="white"/>
</g>
<path fill-rule="evenodd" clip-rule="evenodd" d="M14.65 32.1572L20.0252 26.8462L12.9864 19.4745C10.0155 16.3635 5.1991 16.3635 2.22818 19.4745C-0.742728 22.5863 -0.742728 27.6306 2.22818 30.742C2.49116 31.0175 2.75414 31.2929 3.01711 31.5683C3.68788 32.2708 4.35865 32.9737 5.02906 33.6758L7.73448 36.5092C8.69056 37.5101 9.64664 38.5118 10.6027 39.5127L13.1035 42.1318C13.6291 42.6822 14.1172 43.2731 14.6796 43.7839C14.8435 43.9326 15.0189 44.0672 15.1965 44.2001C14.9004 43.9567 14.6028 43.7152 14.3366 43.4198C11.4536 40.2194 11.5937 35.1766 14.65 32.1572Z" fill="#FFCC48"/>
<path fill-rule="evenodd" clip-rule="evenodd" d="M55.6817 2.49992C52.7987 -0.70056 47.9837 -0.8477 44.9274 2.17206L20.6691 26.1404L14.6404 32.1565C11.5841 35.1759 11.444 40.2186 14.327 43.4191C14.5932 43.7145 14.8908 43.956 15.1865 44.1993C15.3631 44.331 15.5371 44.4653 15.7078 44.6038C15.8206 44.6811 15.9409 44.7396 16.0569 44.8101C17.1657 45.4843 18.3905 45.8775 19.6391 45.916H19.6395C20.0062 45.9269 20.3722 45.8835 20.7375 45.8394C20.9331 45.8118 21.1287 45.7948 21.3229 45.7515C21.4854 45.7179 21.6439 45.6632 21.8042 45.6179C21.7772 45.6262 21.7516 45.6413 21.7246 45.6492C22.9047 45.3195 24.033 44.7234 24.984 43.7836L55.3686 13.7625C58.4245 10.7431 58.5647 5.7004 55.6817 2.49992Z" fill="#FE5C55"/>
</svg>
