<svg width="375" height="353" viewBox="0 0 375 353" fill="none" xmlns="http://www.w3.org/2000/svg">
<g filter="url(#filter0_dd_121_8545)">
<g clip-path="url(#clip0_121_8545)">
<rect x="67" y="24" width="242" height="242" rx="10" fill="white"/>
<g opacity="0.69">
<rect x="59" y="65.8926" width="41.5661" height="15.7097" rx="3.49105" fill="#EBEBEB"/>
<rect x="105.456" y="65.8926" width="41.5661" height="15.7097" rx="3.49105" fill="#2E90FA"/>
<rect x="151.912" y="65.8926" width="41.5661" height="15.7097" rx="3.49105" fill="#B2DDFF"/>
<rect x="198.368" y="65.8926" width="41.5661" height="15.7097" rx="3.49105" fill="#1570EF"/>
<rect x="244.825" y="65.8926" width="41.5661" height="15.7097" rx="3.49105" fill="#E6E6E6"/>
<rect x="291.281" y="65.8926" width="41.5661" height="15.7097" rx="3.49105" fill="#D1E9FF"/>
<rect x="58.9998" y="86.8389" width="41.5661" height="15.7097" rx="3.49105" fill="#EBEBEB"/>
<rect x="105.456" y="86.8389" width="41.5661" height="15.7097" rx="3.49105" fill="#2E90FA"/>
<rect x="151.912" y="86.8389" width="41.5661" height="15.7097" rx="3.49105" fill="#EBEBEB"/>
<rect x="198.368" y="86.8389" width="41.5661" height="15.7097" rx="3.49105" fill="#1570EF"/>
<rect x="244.825" y="86.8389" width="41.5661" height="15.7097" rx="3.49105" fill="#E6E6E6"/>
<rect x="291.281" y="86.8389" width="41.5661" height="15.7097" rx="3.49105" fill="#1570EF"/>
<rect x="58.9998" y="107.785" width="41.5661" height="15.7097" rx="3.49105" fill="#B2DDFF"/>
<rect x="105.256" y="107.785" width="41.5661" height="15.7097" rx="3.49105" fill="#B2DDFF"/>
<rect x="151.512" y="107.785" width="41.5661" height="15.7097" rx="3.49105" fill="#EBEBEB"/>
<rect x="198.642" y="107.785" width="41.5661" height="15.7097" rx="3.49105" fill="#EFF8FF"/>
<rect x="244.898" y="107.785" width="41.5661" height="15.7097" rx="3.49105" fill="#EFF8FF"/>
<rect x="291.155" y="107.785" width="41.5661" height="15.7097" rx="3.49105" fill="#EFF8FF"/>
<rect x="59.0002" y="24" width="41.5661" height="15.7097" rx="3.49105" fill="#E6E6E6"/>
<rect x="105.456" y="24" width="41.5661" height="15.7097" rx="3.49105" fill="#53B1FD"/>
<rect x="151.913" y="24" width="41.5661" height="15.7097" rx="3.49105" fill="#EFF8FF"/>
<rect x="198.368" y="24" width="41.5661" height="15.7097" rx="3.49105" fill="#EFF8FF"/>
<rect x="244.825" y="24" width="41.5661" height="15.7097" rx="3.49105" fill="#2E90FA"/>
<rect x="291.281" y="24" width="41.5661" height="15.7097" rx="3.49105" fill="#EFF8FF"/>
<rect x="59" y="44.9463" width="41.5661" height="15.7097" rx="3.49105" fill="#E6E6E6"/>
<rect x="105.456" y="44.9463" width="41.5661" height="15.7097" rx="3.49105" fill="#2E90FA"/>
<rect x="151.913" y="44.9463" width="41.5661" height="15.7097" rx="3.49105" fill="#B2DDFF"/>
<rect x="198.368" y="44.9463" width="41.5661" height="15.7097" rx="3.49105" fill="#B2DDFF"/>
<rect x="244.825" y="44.9463" width="41.5661" height="15.7097" rx="3.49105" fill="#B2DDFF"/>
<rect x="291.281" y="44.9463" width="41.5661" height="15.7097" rx="3.49105" fill="#B2DDFF"/>
</g>
<g opacity="0.69">
<rect width="41.5661" height="15.7097" rx="3.49105" transform="matrix(-1 0 0 1 332.848 168.893)" fill="#2E90FA"/>
<rect width="41.5661" height="15.7097" rx="3.49105" transform="matrix(-1 0 0 1 286.392 168.893)" fill="#B2DDFF"/>
<rect width="41.5661" height="15.7097" rx="3.49105" transform="matrix(-1 0 0 1 239.936 168.893)" fill="#1570EF"/>
<rect width="41.5661" height="15.7097" rx="3.49105" transform="matrix(-1 0 0 1 193.48 168.893)" fill="#E6E6E6"/>
<rect width="41.5661" height="15.7097" rx="3.49105" transform="matrix(-1 0 0 1 147.023 168.893)" fill="#D1E9FF"/>
<rect width="41.5661" height="15.7097" rx="3.49105" transform="matrix(-1 0 0 1 100.567 168.893)" fill="#53B1FD"/>
<rect width="41.5661" height="15.7097" rx="3.49105" transform="matrix(-1 0 0 1 332.848 189.839)" fill="#2E90FA"/>
<rect width="41.5661" height="15.7097" rx="3.49105" transform="matrix(-1 0 0 1 286.392 189.839)" fill="#EBEBEB"/>
<rect width="41.5661" height="15.7097" rx="3.49105" transform="matrix(-1 0 0 1 239.936 189.839)" fill="#1570EF"/>
<rect width="41.5661" height="15.7097" rx="3.49105" transform="matrix(-1 0 0 1 193.48 189.839)" fill="#E6E6E6"/>
<rect width="41.5661" height="15.7097" rx="3.49105" transform="matrix(-1 0 0 1 147.023 189.839)" fill="#1570EF"/>
<rect width="41.5661" height="15.7097" rx="3.49105" transform="matrix(-1 0 0 1 100.567 189.839)" fill="#EFF8FF"/>
<rect width="41.5661" height="15.7097" rx="3.49105" transform="matrix(-1 0 0 1 333.048 210.785)" fill="#B2DDFF"/>
<rect width="41.5661" height="15.7097" rx="3.49105" transform="matrix(-1 0 0 1 286.792 210.785)" fill="#EBEBEB"/>
<rect width="41.5661" height="15.7097" rx="3.49105" transform="matrix(-1 0 0 1 239.663 210.785)" fill="#EFF8FF"/>
<rect width="41.5661" height="15.7097" rx="3.49105" transform="matrix(-1 0 0 1 193.406 210.785)" fill="#EFF8FF"/>
<rect width="41.5661" height="15.7097" rx="3.49105" transform="matrix(-1 0 0 1 147.15 210.785)" fill="#EFF8FF"/>
<rect width="41.5661" height="15.7097" rx="3.49105" transform="matrix(-1 0 0 1 100.893 210.785)" fill="#EFF8FF"/>
<rect width="41.5661" height="15.7097" rx="3.49105" transform="matrix(-1 0 0 1 332.848 127)" fill="#53B1FD"/>
<rect width="41.5661" height="15.7097" rx="3.49105" transform="matrix(-1 0 0 1 286.392 127)" fill="#EFF8FF"/>
<rect width="41.5661" height="15.7097" rx="3.49105" transform="matrix(-1 0 0 1 239.936 127)" fill="#EFF8FF"/>
<rect width="41.5661" height="15.7097" rx="3.49105" transform="matrix(-1 0 0 1 193.479 127)" fill="#2E90FA"/>
<rect width="41.5661" height="15.7097" rx="3.49105" transform="matrix(-1 0 0 1 147.023 127)" fill="#EFF8FF"/>
<rect width="41.5661" height="15.7097" rx="3.49105" transform="matrix(-1 0 0 1 100.567 127)" fill="#EFF8FF"/>
<rect width="41.5661" height="15.7097" rx="3.49105" transform="matrix(-1 0 0 1 332.848 147.946)" fill="#2E90FA"/>
<rect width="41.5661" height="15.7097" rx="3.49105" transform="matrix(-1 0 0 1 286.392 147.946)" fill="#B2DDFF"/>
<rect width="41.5661" height="15.7097" rx="3.49105" transform="matrix(-1 0 0 1 239.936 147.946)" fill="#B2DDFF"/>
<rect width="41.5661" height="15.7097" rx="3.49105" transform="matrix(-1 0 0 1 193.479 147.946)" fill="#B2DDFF"/>
<rect width="41.5661" height="15.7097" rx="3.49105" transform="matrix(-1 0 0 1 147.023 147.946)" fill="#B2DDFF"/>
<rect width="41.5661" height="15.7097" rx="3.49105" transform="matrix(-1 0 0 1 100.567 147.946)" fill="#B2DDFF"/>
</g>
<g opacity="0.69">
<rect x="59.0002" y="230" width="41.5661" height="15.7097" rx="3.49105" fill="#E6E6E6"/>
<rect x="105.456" y="230" width="41.5661" height="15.7097" rx="3.49105" fill="#53B1FD"/>
<rect x="151.913" y="230" width="41.5661" height="15.7097" rx="3.49105" fill="#EFF8FF"/>
<rect x="198.368" y="230" width="41.5661" height="15.7097" rx="3.49105" fill="#EFF8FF"/>
<rect x="244.825" y="230" width="41.5661" height="15.7097" rx="3.49105" fill="#2E90FA"/>
<rect x="291.281" y="230" width="41.5661" height="15.7097" rx="3.49105" fill="#EFF8FF"/>
<rect x="59" y="250.946" width="41.5661" height="15.7097" rx="3.49105" fill="#E6E6E6"/>
<rect x="105.456" y="250.946" width="41.5661" height="15.7097" rx="3.49105" fill="#2E90FA"/>
<rect x="151.913" y="250.946" width="41.5661" height="15.7097" rx="3.49105" fill="#B2DDFF"/>
<rect x="198.368" y="250.946" width="41.5661" height="15.7097" rx="3.49105" fill="#B2DDFF"/>
<rect x="244.825" y="250.946" width="41.5661" height="15.7097" rx="3.49105" fill="#B2DDFF"/>
<rect x="291.281" y="250.946" width="41.5661" height="15.7097" rx="3.49105" fill="#B2DDFF"/>
</g>
</g>
</g>
<g opacity="0.3" filter="url(#filter1_dd_121_8545)">
<rect x="326" y="40" width="200" height="209" rx="10" fill="white"/>
<rect x="337" y="177" width="26" height="26" rx="6" fill="#F5F5F5"/>
<rect x="337" y="210" width="136" height="9" rx="3" fill="#F5F5F5"/>
<rect x="337" y="226" width="105" height="9" rx="3" fill="#F5F5F5"/>
<rect x="329" y="44" width="193.389" height="118" rx="7.64815" fill="#F5F5F5"/>
</g>
<g opacity="0.3" filter="url(#filter2_dd_121_8545)">
<rect x="-150" y="44" width="200" height="209" rx="10" fill="white"/>
<rect x="26" y="181" width="13" height="13" rx="3" fill="#F5F5F5"/>
<rect x="10" y="181" width="13" height="13" rx="3" fill="#F5F5F5"/>
<rect x="-6" y="181" width="13" height="13" rx="3" fill="#F5F5F5"/>
<rect x="-147" y="48" width="193.389" height="118" rx="7.64815" fill="#F5F5F5"/>
</g>
<defs>
<filter id="filter0_dd_121_8545" x="15" y="2" width="346" height="346" filterUnits="userSpaceOnUse" color-interpolation-filters="sRGB">
<feFlood flood-opacity="0" result="BackgroundImageFix"/>
<feColorMatrix in="SourceAlpha" type="matrix" values="0 0 0 0 0 0 0 0 0 0 0 0 0 0 0 0 0 0 127 0" result="hardAlpha"/>
<feOffset dy="30"/>
<feGaussianBlur stdDeviation="26"/>
<feColorMatrix type="matrix" values="0 0 0 0 0 0 0 0 0 0 0 0 0 0 0 0 0 0 0.17 0"/>
<feBlend mode="normal" in2="BackgroundImageFix" result="effect1_dropShadow_121_8545"/>
<feColorMatrix in="SourceAlpha" type="matrix" values="0 0 0 0 0 0 0 0 0 0 0 0 0 0 0 0 0 0 127 0" result="hardAlpha"/>
<feOffset dy="2"/>
<feGaussianBlur stdDeviation="2"/>
<feColorMatrix type="matrix" values="0 0 0 0 0 0 0 0 0 0 0 0 0 0 0 0 0 0 0.05 0"/>
<feBlend mode="normal" in2="effect1_dropShadow_121_8545" result="effect2_dropShadow_121_8545"/>
<feBlend mode="normal" in="SourceGraphic" in2="effect2_dropShadow_121_8545" result="shape"/>
</filter>
<filter id="filter1_dd_121_8545" x="256" y="0" width="340" height="349" filterUnits="userSpaceOnUse" color-interpolation-filters="sRGB">
<feFlood flood-opacity="0" result="BackgroundImageFix"/>
<feColorMatrix in="SourceAlpha" type="matrix" values="0 0 0 0 0 0 0 0 0 0 0 0 0 0 0 0 0 0 127 0" result="hardAlpha"/>
<feOffset dy="30"/>
<feGaussianBlur stdDeviation="35"/>
<feColorMatrix type="matrix" values="0 0 0 0 0 0 0 0 0 0 0 0 0 0 0 0 0 0 0.23 0"/>
<feBlend mode="normal" in2="BackgroundImageFix" result="effect1_dropShadow_121_8545"/>
<feColorMatrix in="SourceAlpha" type="matrix" values="0 0 0 0 0 0 0 0 0 0 0 0 0 0 0 0 0 0 127 0" result="hardAlpha"/>
<feOffset dy="2"/>
<feGaussianBlur stdDeviation="2"/>
<feColorMatrix type="matrix" values="0 0 0 0 0 0 0 0 0 0 0 0 0 0 0 0 0 0 0.05 0"/>
<feBlend mode="normal" in2="effect1_dropShadow_121_8545" result="effect2_dropShadow_121_8545"/>
<feBlend mode="normal" in="SourceGraphic" in2="effect2_dropShadow_121_8545" result="shape"/>
</filter>
<filter id="filter2_dd_121_8545" x="-220" y="4" width="340" height="349" filterUnits="userSpaceOnUse" color-interpolation-filters="sRGB">
<feFlood flood-opacity="0" result="BackgroundImageFix"/>
<feColorMatrix in="SourceAlpha" type="matrix" values="0 0 0 0 0 0 0 0 0 0 0 0 0 0 0 0 0 0 127 0" result="hardAlpha"/>
<feOffset dy="30"/>
<feGaussianBlur stdDeviation="35"/>
<feColorMatrix type="matrix" values="0 0 0 0 0 0 0 0 0 0 0 0 0 0 0 0 0 0 0.23 0"/>
<feBlend mode="normal" in2="BackgroundImageFix" result="effect1_dropShadow_121_8545"/>
<feColorMatrix in="SourceAlpha" type="matrix" values="0 0 0 0 0 0 0 0 0 0 0 0 0 0 0 0 0 0 127 0" result="hardAlpha"/>
<feOffset dy="2"/>
<feGaussianBlur stdDeviation="2"/>
<feColorMatrix type="matrix" values="0 0 0 0 0 0 0 0 0 0 0 0 0 0 0 0 0 0 0.05 0"/>
<feBlend mode="normal" in2="effect1_dropShadow_121_8545" result="effect2_dropShadow_121_8545"/>
<feBlend mode="normal" in="SourceGraphic" in2="effect2_dropShadow_121_8545" result="shape"/>
</filter>
<clipPath id="clip0_121_8545">
<rect x="67" y="24" width="242" height="242" rx="10" fill="white"/>
</clipPath>
</defs>
</svg>
