<svg width="25" height="24" viewBox="0 0 25 24" fill="none" xmlns="http://www.w3.org/2000/svg">
<path d="M21.7 18V12C21.7 7.02944 17.6706 3 12.7 3C7.72943 3 3.7 7.02944 3.7 12V18M6.2 21C4.81929 21 3.7 19.8807 3.7 18.5V16.5C3.7 15.1193 4.81929 14 6.2 14C7.58071 14 8.7 15.1193 8.7 16.5V18.5C8.7 19.8807 7.58071 21 6.2 21ZM19.2 21C17.8193 21 16.7 19.8807 16.7 18.5V16.5C16.7 15.1193 17.8193 14 19.2 14C20.5807 14 21.7 15.1193 21.7 16.5V18.5C21.7 19.8807 20.5807 21 19.2 21Z" stroke="#4B5768" stroke-width="2" stroke-linecap="round" stroke-linejoin="round"/>
</svg>
