<svg width="32" height="32" viewBox="0 0 32 32" fill="none" xmlns="http://www.w3.org/2000/svg">
<path d="M15 8H11.8C10.1198 8 9.27976 8 8.63803 8.32698C8.07354 8.6146 7.6146 9.07354 7.32698 9.63803C7 10.2798 7 11.1198 7 12.8V20.2C7 21.8802 7 22.7202 7.32698 23.362C7.6146 23.9265 8.07354 24.3854 8.63803 24.673C9.27976 25 10.1198 25 11.8 25H19.2C20.8802 25 21.7202 25 22.362 24.673C22.9265 24.3854 23.3854 23.9265 23.673 23.362C24 22.7202 24 21.8802 24 20.2V17M24.1213 7.87868C25.2929 9.05025 25.2929 10.9497 24.1213 12.1213C22.9497 13.2929 21.0503 13.2929 19.8787 12.1213C18.7071 10.9497 18.7071 9.05025 19.8787 7.87868C21.0503 6.70711 22.9497 6.70711 24.1213 7.87868Z" stroke="#4B5768" stroke-width="2" stroke-linecap="round" stroke-linejoin="round"/>
</svg>
