<svg width="14" height="14" viewBox="0 0 14 14" fill="none" xmlns="http://www.w3.org/2000/svg">
<path d="M2.72723 3.17561C2.72723 2.64588 2.72723 2.38102 2.83768 2.23502C2.9339 2.10782 3.08097 2.02911 3.24017 2.01961C3.42292 2.0087 3.6433 2.15562 4.08406 2.44946L9.81982 6.2733C10.184 6.51609 10.3661 6.63749 10.4296 6.7905C10.485 6.92428 10.485 7.07462 10.4296 7.2084C10.3661 7.36141 10.184 7.48281 9.81981 7.7256L4.08405 11.5494C3.6433 11.8433 3.42292 11.9902 3.24017 11.9793C3.08097 11.9698 2.9339 11.8911 2.83768 11.7639C2.72723 11.6179 2.72723 11.353 2.72723 10.8233V3.17561Z" stroke="white" stroke-width="1.09091" stroke-linecap="round" stroke-linejoin="round"/>
</svg>
