<svg width="25" height="24" viewBox="0 0 25 24" fill="none" xmlns="http://www.w3.org/2000/svg">
<path d="M9.09999 3V21M7.89999 3H16.3C17.9801 3 18.8202 3 19.462 3.32698C20.0264 3.6146 20.4854 4.07354 20.773 4.63803C21.1 5.27976 21.1 6.11984 21.1 7.8V16.2C21.1 17.8802 21.1 18.7202 20.773 19.362C20.4854 19.9265 20.0264 20.3854 19.462 20.673C18.8202 21 17.9801 21 16.3 21H7.89999C6.21983 21 5.37975 21 4.73802 20.673C4.17353 20.3854 3.71459 19.9265 3.42697 19.362C3.09999 18.7202 3.09999 17.8802 3.09999 16.2V7.8C3.09999 6.11984 3.09999 5.27976 3.42697 4.63803C3.71459 4.07354 4.17353 3.6146 4.73802 3.32698C5.37975 3 6.21983 3 7.89999 3Z" stroke="#4B5768" stroke-width="2" stroke-linecap="round" stroke-linejoin="round"/>
</svg>
