<svg width="32" height="32" viewBox="0 0 32 32" fill="none" xmlns="http://www.w3.org/2000/svg">
<path d="M7 19H25M11.8 7H20.2C21.8802 7 22.7202 7 23.362 7.32698C23.9265 7.6146 24.3854 8.07354 24.673 8.63803C25 9.27976 25 10.1198 25 11.8V20.2C25 21.8802 25 22.7202 24.673 23.362C24.3854 23.9265 23.9265 24.3854 23.362 24.673C22.7202 25 21.8802 25 20.2 25H11.8C10.1198 25 9.27976 25 8.63803 24.673C8.07354 24.3854 7.6146 23.9265 7.32698 23.362C7 22.7202 7 21.8802 7 20.2V11.8C7 10.1198 7 9.27976 7.32698 8.63803C7.6146 8.07354 8.07354 7.6146 8.63803 7.32698C9.27976 7 10.1198 7 11.8 7Z" stroke="#4B5768" stroke-width="2" stroke-linecap="round" stroke-linejoin="round"/>
</svg>
