<svg width="25" height="24" viewBox="0 0 25 24" fill="none" xmlns="http://www.w3.org/2000/svg">
<path d="M10.0951 19.3711L10.6795 20.6856C10.8533 21.0768 11.1368 21.4093 11.4958 21.6426C11.8547 21.8759 12.2737 22.0001 12.7018 22C13.1299 22.0001 13.5488 21.8759 13.9078 21.6426C14.2667 21.4093 14.5502 21.0768 14.724 20.6856L15.3084 19.3711C15.5165 18.9047 15.8664 18.5159 16.3084 18.26C16.7532 18.0034 17.2678 17.8941 17.7784 17.9478L19.2084 18.1C19.6341 18.145 20.0637 18.0656 20.4451 17.8713C20.8265 17.6771 21.1434 17.3763 21.3573 17.0056C21.5715 16.635 21.6735 16.2103 21.6511 15.7829C21.6286 15.3555 21.4825 14.9438 21.2307 14.5978L20.384 13.4344C20.0825 13.0171 19.9214 12.5148 19.924 12C19.9239 11.4866 20.0865 10.9864 20.3884 10.5711L21.2351 9.40778C21.487 9.06175 21.633 8.65007 21.6555 8.22267C21.678 7.79528 21.5759 7.37054 21.3618 7C21.1479 6.62923 20.831 6.32849 20.4496 6.13423C20.0681 5.93997 19.6385 5.86053 19.2129 5.90556L17.7829 6.05778C17.2722 6.11141 16.7577 6.00212 16.3129 5.74556C15.87 5.48825 15.52 5.09736 15.3129 4.62889L14.724 3.31444C14.5502 2.92317 14.2667 2.59072 13.9078 2.3574C13.5488 2.12408 13.1299 1.99993 12.7018 2C12.2737 1.99993 11.8547 2.12408 11.4958 2.3574C11.1368 2.59072 10.8533 2.92317 10.6795 3.31444L10.0951 4.62889C9.88803 5.09736 9.53797 5.48825 9.0951 5.74556C8.65032 6.00212 8.13577 6.11141 7.6251 6.05778L6.19066 5.90556C5.76499 5.86053 5.33539 5.93997 4.95397 6.13423C4.57255 6.32849 4.25567 6.62923 4.04177 7C3.82759 7.37054 3.72555 7.79528 3.74803 8.22267C3.77052 8.65007 3.91656 9.06175 4.16843 9.40778L5.0151 10.5711C5.31704 10.9864 5.47964 11.4866 5.47954 12C5.47964 12.5134 5.31704 13.0137 5.0151 13.4289L4.16843 14.5922C3.91656 14.9382 3.77052 15.3499 3.74803 15.7773C3.72555 16.2047 3.82759 16.6295 4.04177 17C4.25588 17.3706 4.5728 17.6712 4.95416 17.8654C5.33553 18.0596 5.76502 18.1392 6.19066 18.0944L7.62066 17.9422C8.13132 17.8886 8.64587 17.9979 9.09066 18.2544C9.53518 18.511 9.88686 18.902 10.0951 19.3711Z" stroke="#4B5768" stroke-width="2" stroke-linecap="round" stroke-linejoin="round"/>
<path d="M12.7 15C14.3568 15 15.7 13.6569 15.7 12C15.7 10.3431 14.3568 9 12.7 9C11.0431 9 9.69998 10.3431 9.69998 12C9.69998 13.6569 11.0431 15 12.7 15Z" stroke="#4B5768" stroke-width="2" stroke-linecap="round" stroke-linejoin="round"/>
</svg>
