<svg width="65" height="65" viewBox="0 0 65 65" fill="none" xmlns="http://www.w3.org/2000/svg">
<mask id="mask0_1758_9974" style="mask-type:luminance" maskUnits="userSpaceOnUse" x="0" y="0" width="65" height="65">
<path d="M64.3901 0H0.330078V64.06H64.3901V0Z" fill="white"/>
</mask>
<g mask="url(#mask0_1758_9974)">
<path d="M43.3101 64.06H21.4001C15.8137 64.06 10.456 61.8415 6.50487 57.8923C2.55376 53.943 0.332729 48.5864 0.330078 43V21.07C0.330078 15.4819 2.54994 10.1227 6.50134 6.17126C10.4527 2.21987 15.812 0 21.4001 0L43.3101 0C48.8982 0 54.2574 2.21987 58.2088 6.17126C62.1602 10.1227 64.3801 15.4819 64.3801 21.07V43C64.3801 48.5881 62.1602 53.9473 58.2088 57.8987C54.2574 61.8501 48.8982 64.07 43.3101 64.07" fill="#EFEFEF"/>
</g>
<path d="M23.5001 37.4601L26.8601 34.3401L22.5401 30.0001C21.6462 29.1775 20.4692 28.7321 19.2547 28.7568C18.0402 28.7816 16.8822 29.2746 16.0227 30.1329C15.1631 30.9912 14.6683 32.1484 14.6418 33.3628C14.6152 34.5773 15.0588 35.755 15.8801 36.6501L16.3601 37.1301L17.6501 38.4201L19.3301 40.1001L21.0901 41.8601L22.6201 43.3901L23.6201 44.3901C23.7001 44.4701 23.8601 44.5501 23.9401 44.6301C23.7801 44.4701 23.5401 44.3101 23.3801 44.1501C22.942 43.7083 22.5977 43.1827 22.3677 42.6046C22.1378 42.0265 22.027 41.408 22.0419 40.786C22.0568 40.1641 22.1972 39.5515 22.4547 38.9852C22.7121 38.4188 23.0813 37.9103 23.5401 37.4901" fill="#FAC31B"/>
<path d="M48.9 19.9098C48.4792 19.4538 47.971 19.0871 47.4056 18.8314C46.8402 18.5757 46.2292 18.4362 45.6089 18.4213C44.9886 18.4063 44.3715 18.5163 43.7945 18.7445C43.2175 18.9727 42.6923 19.3146 42.25 19.7498L27.25 33.9398L23.5 37.4598C23.0412 37.8801 22.672 38.3886 22.4146 38.9549C22.1572 39.5213 22.0168 40.1338 22.0018 40.7558C21.9869 41.3777 22.0977 41.9963 22.3276 42.5744C22.5576 43.1524 22.9019 43.6781 23.34 44.1198C23.5091 44.2992 23.6968 44.4601 23.9 44.5998C23.98 44.6798 24.14 44.7598 24.22 44.8398C24.3 44.9198 24.38 44.9198 24.46 44.9998C25.0993 45.4255 25.852 45.6485 26.62 45.6398C26.8366 45.6581 27.0546 45.6308 27.26 45.5598C27.4014 45.5715 27.5433 45.5438 27.67 45.4798C27.75 45.4798 27.83 45.3998 27.99 45.3998H27.91C28.668 45.2202 29.3607 44.8323 29.91 44.2798L48.74 26.4898C49.1902 26.0729 49.5523 25.5699 49.8048 25.0106C50.0573 24.4513 50.195 23.8471 50.21 23.2336C50.2249 22.6202 50.1166 22.01 49.8916 21.4391C49.6666 20.8682 49.3294 20.3482 48.9 19.9098Z" fill="#E9463B"/>
</svg>
