<svg width="30" height="24" viewBox="0 0 30 24" fill="none" xmlns="http://www.w3.org/2000/svg">
<path fill-rule="evenodd" clip-rule="evenodd" d="M7.91074 16.9179L10.6233 14.2377L7.0712 10.5175C5.57193 8.94753 3.14131 8.94753 1.64203 10.5175C0.142759 12.0879 0.142759 14.6335 1.64203 16.2037C1.77475 16.3427 1.90746 16.4817 2.04017 16.6207C2.37867 16.9752 2.71718 17.3299 3.0555 17.6842L4.42079 19.1141C4.90328 19.6192 5.38577 20.1247 5.86826 20.6298L7.13029 21.9515C7.39553 22.2293 7.64186 22.5275 7.92565 22.7853C8.00836 22.8603 8.0969 22.9283 8.18652 22.9953C8.03709 22.8725 7.88692 22.7506 7.75258 22.6016C6.29766 20.9864 6.36838 18.4416 7.91074 16.9179Z" fill="#FFCC48"/>
<path fill-rule="evenodd" clip-rule="evenodd" d="M28.6174 1.95122C27.1625 0.336098 24.7326 0.261843 23.1902 1.78577L10.9482 13.8814L7.90587 16.9175C6.36351 18.4412 6.29279 20.986 7.74771 22.6011C7.88206 22.7502 8.03222 22.8721 8.18147 22.9949C8.27055 23.0613 8.35836 23.1291 8.44453 23.199C8.50144 23.238 8.56216 23.2675 8.62069 23.3031C9.18026 23.6434 9.79837 23.8418 10.4285 23.8612H10.4287C10.6137 23.8667 10.7984 23.8448 10.9828 23.8225C11.0815 23.8086 11.1802 23.8001 11.2782 23.7782C11.3602 23.7612 11.4402 23.7336 11.5211 23.7108C11.5074 23.715 11.4945 23.7226 11.4809 23.7266C12.0765 23.5602 12.6458 23.2593 13.1258 22.7851L28.4594 7.63491C30.0016 6.11118 30.0723 3.56635 28.6174 1.95122Z" fill="#FE5C55"/>
</svg>
