<svg xmlns="http://www.w3.org/2000/svg" xmlns:xlink="http://www.w3.org/1999/xlink" viewBox="0 0 64.06 64.06"><defs><style>.cls-1{fill:none;}.cls-2{clip-path:url(#clip-path);}.cls-3{fill:#efefef;}.cls-4{fill:#fac31b;}.cls-5{fill:#e9463b;}</style><clipPath id="clip-path"><rect class="cls-1" width="64.06" height="64.06"/></clipPath></defs><g id="Layer_2" data-name="Layer 2"><g id="Layer_1-2" data-name="Layer 1"><g class="cls-2"><path class="cls-3" d="M43,64.06H21.07A21.07,21.07,0,0,1,0,43V21.07A21.07,21.07,0,0,1,21.07,0H43A21.07,21.07,0,0,1,64.06,21.07V43A21.07,21.07,0,0,1,43,64.06"/></g><path class="cls-4" d="M23.17,37.46l3.37-3.12L22.21,30a4.7,4.7,0,0,0-6.65,6.65l.48.48,1.28,1.29L19,40.11l1.77,1.76,1.52,1.53,1,1c.08.08.24.16.32.24-.16-.16-.4-.32-.56-.48a4.64,4.64,0,0,1,.16-6.66"/><path class="cls-5" d="M48.58,19.91a4.63,4.63,0,0,0-6.65-.16l-15,14.19-3.77,3.52A4.64,4.64,0,0,0,23,44.12a3.48,3.48,0,0,0,.56.48c.08.08.24.16.32.24s.16.08.24.16a3.86,3.86,0,0,0,2.17.64,1.56,1.56,0,0,0,.64-.08.72.72,0,0,0,.4-.08c.08,0,.16-.08.32-.08h-.08a4.18,4.18,0,0,0,2-1.12L48.42,26.49a4.61,4.61,0,0,0,.16-6.58"/></g></g></svg>