<svg width="184" height="41" viewBox="0 0 184 41" fill="none" xmlns="http://www.w3.org/2000/svg">
<path fill-rule="evenodd" clip-rule="evenodd" d="M69.1807 17.5463C69.1807 14.5359 67.8176 12.5962 65.6544 12.5962C63.5354 12.5962 62.1426 14.567 62.1426 17.5463C62.1426 20.5568 63.5354 22.4809 65.6544 22.4809C67.8176 22.4809 69.1807 20.5723 69.1807 17.5463ZM73.6111 17.5463C73.6111 22.9001 71.1513 26.1277 67.1806 26.1277C64.8691 26.1277 63.091 24.9487 62.2463 23.0706H62.1578V31.2953H57.8311V9.22882H62.0983V12.1304H62.1872C63.0464 10.1751 64.8097 8.96497 67.1063 8.96497C71.1368 8.96497 73.6111 12.177 73.6111 17.5463Z" fill="black"/>
<path fill-rule="evenodd" clip-rule="evenodd" d="M75.6797 9.22877H79.8581V12.2236H79.947C80.5103 10.1137 81.8582 8.96521 83.7252 8.96521C84.2291 8.96521 84.6587 9.04269 84.9549 9.13603V13.1235C84.5996 12.9685 84.0066 12.86 83.3845 12.86C81.251 12.86 80.0061 14.2256 80.0061 16.5689V25.8641H75.6797V9.22877Z" fill="black"/>
<path fill-rule="evenodd" clip-rule="evenodd" d="M96.8048 17.5464C96.8048 14.2413 95.4417 12.3327 93.3376 12.3327C91.2338 12.3327 89.8555 14.2413 89.8555 17.5464C89.8555 20.8829 91.2041 22.7604 93.3376 22.7604C95.4562 22.7604 96.8048 20.8829 96.8048 17.5464ZM85.4697 17.5308C85.4697 12.146 88.5813 8.8717 93.3376 8.8717C98.0939 8.8717 101.205 12.1304 101.205 17.5308C101.205 23.009 98.1385 26.2211 93.3376 26.2211C88.537 26.2211 85.4697 22.9935 85.4697 17.5308Z" fill="black"/>
<path fill-rule="evenodd" clip-rule="evenodd" d="M114.15 17.5152C114.15 14.5203 112.772 12.5962 110.609 12.5962C108.475 12.5962 107.127 14.4892 107.127 17.5152C107.127 20.5568 108.46 22.3263 110.609 22.3263C112.772 22.3263 114.15 20.5256 114.15 17.5152ZM103.186 27.0431H107.423C107.764 28.1916 109.008 28.9832 110.653 28.9832C112.891 28.9832 114.135 27.68 114.135 25.7552V22.8378H114.046C113.306 24.6074 111.439 25.8172 109.142 25.8172C105.26 25.8172 102.696 22.6829 102.696 17.4841C102.696 12.2081 105.186 8.96497 109.216 8.96497C111.498 8.96497 113.291 10.222 114.12 12.1304H114.194V9.22882H118.462V25.6314C118.462 29.6039 115.291 32.1333 110.535 32.1333C106.357 32.1333 103.527 30.0069 103.186 27.0431Z" fill="black"/>
<path fill-rule="evenodd" clip-rule="evenodd" d="M121.124 9.22877H125.302V12.2236H125.391C125.954 10.1137 127.303 8.96521 129.17 8.96521C129.673 8.96521 130.103 9.04269 130.399 9.13603V13.1235C130.044 12.9685 129.451 12.86 128.829 12.86C126.695 12.86 125.45 14.2256 125.45 16.5689V25.8641H121.124V9.22877Z" fill="black"/>
<path fill-rule="evenodd" clip-rule="evenodd" d="M135.21 15.8083H141.952C141.863 13.6828 140.545 12.2238 138.618 12.2238C136.722 12.2238 135.359 13.7294 135.21 15.8083ZM145.982 20.774C145.508 24.0334 142.663 26.2211 138.737 26.2211C133.847 26.2211 130.913 22.9468 130.913 17.6242C130.913 12.3171 133.877 8.8717 138.574 8.8717C143.197 8.8717 146.116 12.146 146.116 17.2051V18.5863H135.166V18.8654C135.166 21.2398 136.603 22.869 138.811 22.869C140.396 22.869 141.611 22.0469 142.011 20.774H145.982Z" fill="black"/>
<path fill-rule="evenodd" clip-rule="evenodd" d="M154.616 8.8717C158.602 8.8717 161.194 10.9823 161.254 14.2099H157.268C157.179 12.8753 156.157 12.0533 154.556 12.0533C153.06 12.0533 152.082 12.767 152.082 13.8374C152.082 14.6601 152.764 15.2186 154.157 15.56L157.194 16.243C160.38 16.9879 161.669 18.3069 161.669 20.7893C161.669 24.0636 158.794 26.2208 154.601 26.2208C150.363 26.2208 147.756 24.0791 147.519 20.8359H151.741C151.949 22.2327 153.001 23.0398 154.719 23.0398C156.364 23.0398 157.357 22.3572 157.357 21.2706C157.357 20.4327 156.824 19.9672 155.401 19.6103L152.467 18.9276C149.46 18.2135 147.918 16.5688 147.918 14.1165C147.918 10.9512 150.541 8.8717 154.616 8.8717Z" fill="black"/>
<path fill-rule="evenodd" clip-rule="evenodd" d="M170.094 8.8717C174.08 8.8717 176.673 10.9823 176.732 14.2099H172.746C172.658 12.8753 171.635 12.0533 170.035 12.0533C168.539 12.0533 167.561 12.767 167.561 13.8374C167.561 14.6601 168.242 15.2186 169.635 15.56L172.672 16.243C175.858 16.9879 177.147 18.3069 177.147 20.7893C177.147 24.0636 174.273 26.2208 170.079 26.2208C165.842 26.2208 163.234 24.0791 162.997 20.8359H167.22C167.427 22.2327 168.479 23.0398 170.198 23.0398C171.843 23.0398 172.836 22.3572 172.836 21.2706C172.836 20.4327 172.302 19.9672 170.88 19.6103L167.946 18.9276C164.938 18.2135 163.397 16.5688 163.397 14.1165C163.397 10.9512 166.019 8.8717 170.094 8.8717Z" fill="black"/>
<path fill-rule="evenodd" clip-rule="evenodd" d="M137.817 33.7019C137.57 32.5173 136.642 31.5824 135.192 31.5824C133.399 31.5824 132.223 33.0911 132.223 35.47C132.223 37.8854 133.407 39.3569 135.201 39.3569C136.588 39.3569 137.552 38.5516 137.817 37.3026H138.975C138.718 39.1439 137.225 40.4396 135.192 40.4396C132.682 40.4396 131.03 38.5516 131.03 35.47C131.03 32.4338 132.682 30.4998 135.183 30.4998C137.349 30.4998 138.736 31.9806 138.966 33.7019H137.817Z" fill="black"/>
<path fill-rule="evenodd" clip-rule="evenodd" d="M141.179 34.7944H146.853C146.826 32.8969 145.721 31.5734 144.06 31.5734C142.417 31.5734 141.276 32.8969 141.179 34.7944ZM147.94 37.5524C147.666 39.2184 146.172 40.4395 144.149 40.4395C141.568 40.4395 139.969 38.5515 139.969 35.4977C139.969 32.5082 141.586 30.5 144.078 30.5C146.517 30.5 148.054 32.3784 148.054 35.2473V35.7661H141.17V35.8403C141.17 38.0149 142.346 39.3659 144.175 39.3659C145.563 39.3659 146.526 38.6072 146.782 37.5524H147.94Z" fill="black"/>
<path fill-rule="evenodd" clip-rule="evenodd" d="M149.616 30.6571H150.721V32.4341H150.747C151.216 31.2682 152.294 30.5 153.778 30.5C155.793 30.5 157.03 31.8606 157.03 34.0444V40.2828H155.864V34.2389C155.864 32.5546 154.98 31.5919 153.443 31.5919C151.852 31.5919 150.783 32.7948 150.783 34.5814V40.2828H149.616V30.6571Z" fill="black"/>
<path fill-rule="evenodd" clip-rule="evenodd" d="M160.667 28.2511V30.6569H162.478V31.6753H160.667V37.8577C160.667 38.8482 161.038 39.2739 161.887 39.2739C162.011 39.2739 162.452 39.255 162.523 39.2368V40.2827C162.399 40.3105 161.905 40.3383 161.657 40.3383C160.119 40.3383 159.501 39.6532 159.501 37.9133V31.6753H158.131V30.6569H159.501V28.2511H160.667Z" fill="black"/>
<path fill-rule="evenodd" clip-rule="evenodd" d="M164.571 34.7944H170.244C170.218 32.8969 169.113 31.5734 167.452 31.5734C165.808 31.5734 164.668 32.8969 164.571 34.7944ZM171.332 37.5524C171.057 39.2184 169.564 40.4395 167.54 40.4395C164.959 40.4395 163.36 38.5515 163.36 35.4977C163.36 32.5082 164.978 30.5 167.469 30.5C169.909 30.5 171.446 32.3784 171.446 35.2473V35.7661H164.562V35.8403C164.562 38.0149 165.737 39.3659 167.566 39.3659C168.954 39.3659 169.917 38.6072 170.174 37.5524H171.332Z" fill="black"/>
<path fill-rule="evenodd" clip-rule="evenodd" d="M173.008 30.6571H174.112V32.3697H174.139C174.475 31.1937 175.332 30.5 176.463 30.5C176.772 30.5 177.047 30.5649 177.187 30.6014V31.8052C177.037 31.7307 176.71 31.6658 176.313 31.6658C175.004 31.6658 174.174 32.7305 174.174 34.2856V40.2828H173.008V30.6571Z" fill="black"/>
<path fill-rule="evenodd" clip-rule="evenodd" d="M179.065 13.0237V9.88879H177.984V9.59412H180.458V9.88879H179.375V13.0237H179.065Z" fill="black"/>
<mask id="mask0_73_9945" style="mask-type:alpha" maskUnits="userSpaceOnUse" x="180" y="9" width="4" height="5">
<path d="M180.846 9.59412H184V13.0237H180.846V9.59412Z" fill="white"/>
</mask>
<g mask="url(#mask0_73_9945)">
<path fill-rule="evenodd" clip-rule="evenodd" d="M183.71 13.0237V10.2098H183.696L182.557 13.0069H182.287L181.15 10.2098H181.136V13.0237H180.846V9.59412H181.202L182.416 12.5956H182.43L183.641 9.59412H184V13.0237H183.71Z" fill="black"/>
</g>
<path fill-rule="evenodd" clip-rule="evenodd" d="M11.6165 25.4985L15.8786 21.2872L10.2974 15.4419C7.94163 12.9751 4.12253 12.9751 1.7668 15.4419C-0.588933 17.9094 -0.588933 21.9092 1.7668 24.3763C1.97532 24.5947 2.18384 24.8131 2.39237 25.0315C2.92424 25.5885 3.45612 26.1458 3.9877 26.7026L6.13291 28.9492C6.89102 29.7429 7.64913 30.5372 8.40724 31.3308L10.3902 33.4076C10.807 33.8441 11.194 34.3126 11.6399 34.7176C11.7699 34.8355 11.909 34.9423 12.0498 35.0476C11.815 34.8546 11.5791 34.6632 11.368 34.4289C9.08193 31.8912 9.19305 27.8926 11.6165 25.4985Z" fill="#FFCC48"/>
<path fill-rule="evenodd" clip-rule="evenodd" d="M44.1516 1.98226C41.8656 -0.555497 38.0476 -0.672168 35.6242 1.7223L16.389 20.7275L11.6087 25.4979C9.18527 27.8921 9.07415 31.8906 11.3602 34.4284C11.5713 34.6626 11.8072 34.8541 12.0417 35.0471C12.1817 35.1515 12.3197 35.258 12.4551 35.3678C12.5445 35.4291 12.6399 35.4754 12.7319 35.5314C13.6111 36.066 14.5823 36.3777 15.5723 36.4082H15.5726C15.8634 36.4169 16.1536 36.3825 16.4433 36.3475C16.5984 36.3257 16.7535 36.3122 16.9075 36.2778C17.0363 36.2512 17.162 36.2078 17.2891 36.1719C17.2677 36.1785 17.2474 36.1904 17.226 36.1967C18.1617 35.9353 19.0564 35.4626 19.8105 34.7174L43.9034 10.9127C46.3265 8.51858 46.4377 4.52003 44.1516 1.98226Z" fill="#FE5C55"/>
</svg>
