<svg width="16" height="17" viewBox="0 0 16 17" fill="none" xmlns="http://www.w3.org/2000/svg">
<path d="M7.00028 8.36802H3.33362M3.27718 8.56236L1.72057 13.2122C1.59828 13.5774 1.53713 13.7601 1.58101 13.8726C1.61912 13.9702 1.70096 14.0443 1.80195 14.0725C1.91824 14.1049 2.09388 14.0259 2.44517 13.8678L13.5862 8.85438C13.929 8.70009 14.1005 8.62294 14.1535 8.51576C14.1995 8.42265 14.1995 8.3134 14.1535 8.22029C14.1005 8.11311 13.929 8.03597 13.5862 7.88167L2.44129 2.86651C2.09106 2.7089 1.91595 2.6301 1.79977 2.66243C1.69888 2.6905 1.61704 2.76436 1.57881 2.86185C1.53478 2.97412 1.59527 3.15637 1.71625 3.52087L3.27761 8.22504C3.29839 8.28765 3.30878 8.31895 3.31288 8.35096C3.31652 8.37937 3.31649 8.40813 3.31277 8.43653C3.30859 8.46853 3.29812 8.49981 3.27718 8.56236Z" stroke="#98A2B3" stroke-width="1.33333" stroke-linecap="round" stroke-linejoin="round"/>
</svg>
