<svg width="25" height="24" viewBox="0 0 25 24" fill="none" xmlns="http://www.w3.org/2000/svg">
<path d="M3.89999 8L15.9 8M15.9 8C15.9 9.65686 17.2431 11 18.9 11C20.5568 11 21.9 9.65685 21.9 8C21.9 6.34315 20.5568 5 18.9 5C17.2431 5 15.9 6.34315 15.9 8ZM9.89999 16L21.9 16M9.89999 16C9.89999 17.6569 8.55685 19 6.89999 19C5.24314 19 3.89999 17.6569 3.89999 16C3.89999 14.3431 5.24314 13 6.89999 13C8.55685 13 9.89999 14.3431 9.89999 16Z" stroke="#4B5768" stroke-width="2" stroke-linecap="round" stroke-linejoin="round"/>
</svg>
