<svg width="25" height="24" viewBox="0 0 25 24" fill="none" xmlns="http://www.w3.org/2000/svg">
<path d="M16.1 3.46776C17.5817 4.20411 18.6 5.73314 18.6 7.5C18.6 9.26686 17.5817 10.7959 16.1 11.5322M18.1 16.7664C19.6114 17.4503 20.9725 18.565 22.1 20M2.09999 20C4.04648 17.5226 6.68917 16 9.59999 16C12.5108 16 15.1535 17.5226 17.1 20M14.1 7.5C14.1 9.98528 12.0853 12 9.59999 12C7.11471 12 5.09999 9.98528 5.09999 7.5C5.09999 5.01472 7.11471 3 9.59999 3C12.0853 3 14.1 5.01472 14.1 7.5Z" stroke="#4B5768" stroke-width="2" stroke-linecap="round" stroke-linejoin="round"/>
</svg>
