<svg width="33" height="32" viewBox="0 0 33 32" fill="none" xmlns="http://www.w3.org/2000/svg">
<path d="M25.3 14H7.3M20.3 6V10M12.3 6V10M12.1 26H20.5C22.1802 26 23.0202 26 23.662 25.673C24.2265 25.3854 24.6854 24.9265 24.973 24.362C25.3 23.7202 25.3 22.8802 25.3 21.2V12.8C25.3 11.1198 25.3 10.2798 24.973 9.63803C24.6854 9.07354 24.2265 8.6146 23.662 8.32698C23.0202 8 22.1802 8 20.5 8H12.1C10.4198 8 9.57977 8 8.93803 8.32698C8.37355 8.6146 7.9146 9.07354 7.62698 9.63803C7.3 10.2798 7.3 11.1198 7.3 12.8V21.2C7.3 22.8802 7.3 23.7202 7.62698 24.362C7.9146 24.9265 8.37355 25.3854 8.93803 25.673C9.57977 26 10.4198 26 12.1 26Z" stroke="#4B5768" stroke-width="2" stroke-linecap="round" stroke-linejoin="round"/>
</svg>
