<svg width="25" height="24" viewBox="0 0 25 24" fill="none" xmlns="http://www.w3.org/2000/svg">
<path d="M21.3 10H3.3M16.3 2V6M8.3 2V6M8.1 22H16.5C18.1802 22 19.0202 22 19.662 21.673C20.2265 21.3854 20.6854 20.9265 20.973 20.362C21.3 19.7202 21.3 18.8802 21.3 17.2V8.8C21.3 7.11984 21.3 6.27976 20.973 5.63803C20.6854 5.07354 20.2265 4.6146 19.662 4.32698C19.0202 4 18.1802 4 16.5 4H8.1C6.41985 4 5.57977 4 4.93803 4.32698C4.37355 4.6146 3.9146 5.07354 3.62698 5.63803C3.3 6.27976 3.3 7.11984 3.3 8.8V17.2C3.3 18.8802 3.3 19.7202 3.62698 20.362C3.9146 20.9265 4.37355 21.3854 4.93803 21.673C5.57977 22 6.41985 22 8.1 22Z" stroke="#4B5768" stroke-width="2" stroke-linecap="round" stroke-linejoin="round"/>
</svg>
