<svg width="14" height="14" viewBox="0 0 14 14" fill="none" xmlns="http://www.w3.org/2000/svg">
<path d="M3.10116 11.3384C3.45602 10.5024 4.28453 9.91602 5.24999 9.91602H8.74999C9.71545 9.91602 10.544 10.5024 10.8988 11.3384M9.33332 5.54102C9.33332 6.82968 8.28865 7.87435 6.99999 7.87435C5.71133 7.87435 4.66666 6.82968 4.66666 5.54102C4.66666 4.25235 5.71133 3.20768 6.99999 3.20768C8.28865 3.20768 9.33332 4.25235 9.33332 5.54102ZM12.8333 6.99935C12.8333 10.221 10.2217 12.8327 6.99999 12.8327C3.77833 12.8327 1.16666 10.221 1.16666 6.99935C1.16666 3.77769 3.77833 1.16602 6.99999 1.16602C10.2217 1.16602 12.8333 3.77769 12.8333 6.99935Z" stroke="#808080" stroke-width="1.16667" stroke-linecap="round" stroke-linejoin="round"/>
</svg>
