<svg width="25" height="24" viewBox="0 0 25 24" fill="none" xmlns="http://www.w3.org/2000/svg">
<path d="M22.3 8.93137C22.3 8.32555 22.3 8.02265 22.1802 7.88238C22.0763 7.76068 21.9203 7.69609 21.7608 7.70865C21.5769 7.72312 21.3627 7.93731 20.9343 8.36569L17.3 12L20.9343 15.6343C21.3627 16.0627 21.5769 16.2769 21.7608 16.2914C21.9203 16.3039 22.0763 16.2393 22.1802 16.1176C22.3 15.9774 22.3 15.6744 22.3 15.0686V8.93137Z" stroke="#4D5761" stroke-width="2" stroke-linecap="round" stroke-linejoin="round"/>
<path d="M2.3 9.8C2.3 8.11984 2.3 7.27976 2.62698 6.63803C2.9146 6.07354 3.37355 5.6146 3.93803 5.32698C4.57977 5 5.41985 5 7.1 5H12.5C14.1802 5 15.0202 5 15.662 5.32698C16.2265 5.6146 16.6854 6.07354 16.973 6.63803C17.3 7.27976 17.3 8.11984 17.3 9.8V14.2C17.3 15.8802 17.3 16.7202 16.973 17.362C16.6854 17.9265 16.2265 18.3854 15.662 18.673C15.0202 19 14.1802 19 12.5 19H7.1C5.41985 19 4.57977 19 3.93803 18.673C3.37355 18.3854 2.9146 17.9265 2.62698 17.362C2.3 16.7202 2.3 15.8802 2.3 14.2V9.8Z" stroke="#4D5761" stroke-width="2" stroke-linecap="round" stroke-linejoin="round"/>
</svg>
