<svg width="39" height="27" viewBox="0 0 39 27" fill="none" xmlns="http://www.w3.org/2000/svg">
<path d="M37.7806 4.21637C37.336 2.55586 36.0303 1.25094 34.3691 0.806444C31.3611 2.98023e-07 19.2937 0 19.2937 0C19.2937 0 7.22641 2.98023e-07 4.21831 0.806444C2.55704 1.25094 1.25152 2.55586 0.806817 4.21637C2.38419e-07 7.22307 0 13.5 0 13.5C0 13.5 2.38419e-07 19.777 0.806817 22.7837C1.25152 24.4442 2.55704 25.7491 4.21831 26.1935C7.22641 27 19.2937 27 19.2937 27C19.2937 27 31.3611 27 34.3691 26.1935C36.0303 25.7491 37.336 24.4442 37.7806 22.7837C38.5875 19.777 38.5875 13.5 38.5875 13.5C38.5875 13.5 38.5842 7.22307 37.7806 4.21637Z" fill="#FF0000"/>
<path d="M15.4313 19.2853L25.4561 13.5005L15.4313 7.7157V19.2853Z" fill="white"/>
</svg>